<svg aria-hidden="true" xmlns="http://www.w3.org/2000/svg" xmlns:xlink="http://www.w3.org/1999/xlink">
    <defs>
        <symbol id="icon-instagram" viewBox="0 0 20 20">
            <title>Instagram</title>
            <path xmlns="http://www.w3.org/2000/svg"
                d="M10.001 7C9.20535 7 8.44229 7.31607 7.87968 7.87868C7.31707 8.44129 7.001 9.20435 7.001 10C7.001 10.7956 7.31707 11.5587 7.87968 12.1213C8.44229 12.6839 9.20535 13 10.001 13C10.7966 13 11.5597 12.6839 12.1223 12.1213C12.6849 11.5587 13.001 10.7956 13.001 10C13.001 9.20435 12.6849 8.44129 12.1223 7.87868C11.5597 7.31607 10.7966 7 10.001 7ZM10.001 5C11.3271 5 12.5989 5.52678 13.5365 6.46447C14.4742 7.40215 15.001 8.67392 15.001 10C15.001 11.3261 14.4742 12.5979 13.5365 13.5355C12.5989 14.4732 11.3271 15 10.001 15C8.67492 15 7.40315 14.4732 6.46547 13.5355C5.52778 12.5979 5.001 11.3261 5.001 10C5.001 8.67392 5.52778 7.40215 6.46547 6.46447C7.40315 5.52678 8.67492 5 10.001 5ZM16.501 4.75C16.501 5.08152 16.3693 5.39946 16.1349 5.63388C15.9005 5.8683 15.5825 6 15.251 6C14.9195 6 14.6015 5.8683 14.3671 5.63388C14.1327 5.39946 14.001 5.08152 14.001 4.75C14.001 4.41848 14.1327 4.10054 14.3671 3.86612C14.6015 3.6317 14.9195 3.5 15.251 3.5C15.5825 3.5 15.9005 3.6317 16.1349 3.86612C16.3693 4.10054 16.501 4.41848 16.501 4.75ZM10.001 2C7.527 2 7.123 2.007 5.972 2.058C5.188 2.095 4.662 2.2 4.174 2.39C3.76562 2.53994 3.39641 2.78026 3.094 3.093C2.78101 3.3954 2.54035 3.76458 2.39 4.173C2.2 4.663 2.095 5.188 2.059 5.971C2.007 7.075 2 7.461 2 10C2 12.475 2.007 12.878 2.058 14.029C2.095 14.812 2.2 15.339 2.389 15.826C2.559 16.261 2.759 16.574 3.091 16.906C3.428 17.242 3.741 17.443 4.171 17.609C4.665 17.8 5.191 17.906 5.971 17.942C7.075 17.994 7.461 18 10 18C12.475 18 12.878 17.993 14.029 17.942C14.811 17.905 15.337 17.8 15.826 17.611C16.234 17.4603 16.6031 17.2201 16.906 16.908C17.243 16.572 17.444 16.259 17.61 15.828C17.8 15.336 17.906 14.81 17.942 14.028C17.994 12.925 18 12.538 18 10C18 7.526 17.993 7.122 17.942 5.971C17.905 5.189 17.799 4.661 17.61 4.173C17.4593 3.76502 17.219 3.39598 16.907 3.093C16.6047 2.77985 16.2355 2.53917 15.827 2.389C15.337 2.199 14.811 2.094 14.029 2.058C12.926 2.006 12.54 2 10 2M10 0C12.717 0 13.056 0.00999994 14.123 0.0599999C15.187 0.11 15.913 0.277 16.55 0.525C17.21 0.779 17.766 1.123 18.322 1.678C18.8305 2.1779 19.224 2.78259 19.475 3.45C19.722 4.087 19.89 4.813 19.94 5.878C19.987 6.944 20 7.283 20 10C20 12.717 19.99 13.056 19.94 14.122C19.89 15.187 19.722 15.912 19.475 16.55C19.2246 17.2178 18.8311 17.8226 18.322 18.322C17.822 18.8303 17.2173 19.2238 16.55 19.475C15.913 19.722 15.187 19.89 14.123 19.94C13.056 19.987 12.717 20 10 20C7.283 20 6.944 19.99 5.877 19.94C4.813 19.89 4.088 19.722 3.45 19.475C2.78233 19.2245 2.17753 18.8309 1.678 18.322C1.16943 17.8222 0.77596 17.2175 0.525 16.55C0.277 15.913 0.11 15.187 0.0599999 14.122C0.0119999 13.056 0 12.717 0 10C0 7.283 0.00999994 6.944 0.0599999 5.878C0.11 4.813 0.277 4.088 0.525 3.45C0.775236 2.78218 1.1688 2.17732 1.678 1.678C2.17767 1.16923 2.78243 0.775729 3.45 0.525C4.087 0.277 4.812 0.11 5.877 0.0599999C6.945 0.0129999 7.284 0 10.001 0"
                fill="currentColor" />
        </symbol>
        <symbol id="icon-facebook" viewBox="0 0 11 20">
            <title>Facebook</title>
            <path
                d="M7 11.5H9.5L10.5 7.5H7V5.5C7 4.47 7 3.5 9 3.5H10.5V0.14C10.174 0.0970001 8.943 0 7.643 0C4.928 0 3 1.657 3 4.7V7.5H0V11.5H3V20H7V11.5Z"
                fill="currentColor" />
        </symbol>
        <symbol id="icon-linkedin" viewBox="0 0 20 18">
            <title>Linkedin</title>
            <path
                d="M4 2.001C3.99974 2.53143 3.78877 3.04004 3.41351 3.41492C3.03825 3.78981 2.52943 4.00027 1.999 4C1.46857 3.99974 0.959965 3.78877 0.585079 3.41351C0.210194 3.03825 -0.000264966 2.52943 2.50361e-07 1.999C0.000265467 1.46857 0.211233 0.959965 0.586494 0.585079C0.961754 0.210194 1.47057 -0.000264966 2.001 2.50361e-07C2.53143 0.000265467 3.04004 0.211233 3.41492 0.586494C3.78981 0.961754 4.00027 1.47057 4 2.001ZM4.06 5.481H0.0600002V18.001H4.06V5.481ZM10.38 5.481H6.4V18.001H10.34V11.431C10.34 7.771 15.11 7.431 15.11 11.431V18.001H19.06V10.071C19.06 3.901 12 4.131 10.34 7.161L10.38 5.481Z"
                fill="currentColor" />
        </symbol>
        <symbol id="icon-x" viewBox="0 0 16 16">
            <title>X</title>
            <path xmlns="http://www.w3.org/2000/svg"
                d="M13.828 1.333a.557.557 0 0 1 .419.924L9.694 7.46l5.093 6.733a1 1 0 0 1-.797 1.603h-2.433a1 1 0 0 1-.795-.393L7.196 10.74l-3.617 4.132a2.705 2.705 0 0 1-2.036.924.557.557 0 0 1-.419-.924L6.05 9.243l-4.82-6.302a1 1 0 0 1 .795-1.608h2.541a1 1 0 0 1 .798.397l3.195 4.225 3.235-3.698a2.703 2.703 0 0 1 2.035-.924zM11.74 14.327h1.36L4.323 2.725H2.865l8.875 11.602z"
                fill="#000" fill-rule="evenodd" opacity=".7" />
        </symbol>
        <symbol id="icon-info" viewBox="0 0 12 12">
            <path
                d="M6 .5a5.5 5.5 0 1 1 0 11 5.5 5.5 0 0 1 0-11zm0 1a4.5 4.5 0 1 0 0 9 4.5 4.5 0 0 0 0-9zm-.266 6.613c.387 0 .675.297.675.675 0 .387-.288.693-.675.693a.688.688 0 0 1-.693-.693c0-.369.297-.675.693-.675zm.27-5.328c1.134 0 1.872.63 1.872 1.692 0 .716-.363 1.117-.746 1.476l-.254.236c-.333.314-.62.643-.62 1.177v.027c0 .108-.063.171-.171.171h-.72c-.108 0-.171-.063-.171-.171v-.171c0-1.503 1.485-1.728 1.485-2.637 0-.477-.288-.774-.882-.774-.387 0-.702.099-.936.225-.099.054-.18.036-.225-.072l-.279-.585c-.045-.09-.027-.171.072-.225.513-.252.99-.369 1.575-.369z"
                fill="currentColor" fill-rule="nonzero" opacity=".9" />
        </symbol>
        <symbol id="icon-select-up" viewBox="0 0 24 24">
            <title>Select Arrow Up</title>
            <path style="transform-origin: center;transform: rotate(180deg)"
                d="M21.657 8.754a1 1 0 1 0-1.314-1.508l-8.499 7.417-8.173-7.404A1 1 0 0 0 2.35 7.24l-.09.088a1 1 0 0 0 .07 1.412l8.83 8a1 1 0 0 0 1.329.013l9.17-8z"
                fillRule="nonzero" />
        </symbol>
        <symbol id="icon-select-bottom" viewBox="0 0 24 24">
            <title>Select Arrow Bottom</title>
            <path
                d="M21.657 8.754a1 1 0 1 0-1.314-1.508l-8.499 7.417-8.173-7.404A1 1 0 0 0 2.35 7.24l-.09.088a1 1 0 0 0 .07 1.412l8.83 8a1 1 0 0 0 1.329.013l9.17-8z"
                fillRule="nonzero" />
        </symbol>
        <symbol id="icon-arrow" viewBox="0 0 9.32 14.66">
            <title>Icon Arrow Bottom</title>
            <path xmlns="http://www.w3.org/2000/svg" fill="#4EB700"
                d="M10,17.41a.68.68,0,0,1-.52-.26l-4-3.94a.67.67,0,0,1,1-.94l2.86,2.86V3.41a.67.67,0,1,1,1.33,0V15.14l2.86-2.87a.67.67,0,0,1,.88-.06l.07.06a.66.66,0,0,1,0,.94l-4,4a.69.69,0,0,1-.48.2Z"
                transform="translate(-5.34 -2.74)" />
        </symbol>
        <symbol id="icon-nav-menu" viewBox="0 0 18 12">
            <title>Nav Menu</title>
            <path
                d="M1 12H17C17.55 12 18 11.55 18 11C18 10.45 17.55 10 17 10H1C0.45 10 0 10.45 0 11C0 11.55 0.45 12 1 12ZM1 7H17C17.55 7 18 6.55 18 6C18 5.45 17.55 5 17 5H1C0.45 5 0 5.45 0 6C0 6.55 0.45 7 1 7ZM0 1C0 1.55 0.45 2 1 2H17C17.55 2 18 1.55 18 1C18 0.45 17.55 0 17 0H1C0.45 0 0 0.45 0 1Z"
                fill="currentColor" />
        </symbol>
        <symbol id="icon-nav-close" viewBox="0 0 24 24">
            <title>Nav Close</title>
            <path fill="currentColor" fillRule="nonzero"
                d="M17.093927,6.1025895 C17.3182992,5.94701549 17.6291667,5.96830557 17.8299405,6.16699564 C18.0558109,6.39052197 18.0568114,6.75392528 17.8321751,6.97867965 L17.8321751,6.97867965 L12.813,12 L17.8321751,17.0213203 C18.0568114,17.2460747 18.0558109,17.609478 17.8299405,17.8330044 C17.6291667,18.0316944 17.3182992,18.0529845 17.093927,17.8974105 L17.0142258,17.8307808 L12,12.813 L6.98577421,17.8307808 L6.90607305,17.8974105 C6.6817008,18.0529845 6.37083327,18.0316944 6.17005953,17.8330044 C5.94418907,17.609478 5.94318859,17.2460747 6.16782491,17.0213203 L6.16782491,17.0213203 L11.186,12 L6.16782491,6.97867965 C5.94318859,6.75392528 5.94418907,6.39052197 6.17005953,6.16699564 C6.37083327,5.96830557 6.6817008,5.94701549 6.90607305,6.1025895 L6.98577421,6.16921922 L12,11.186 L17.0142258,6.16921922 Z" />
        </symbol>
        <symbol id="icon-close" viewBox="0 0 24 24">
            <title>Close</title>
            <path fill="currentColor" fillRule="nonzero"
                d="M17.093927,6.1025895 C17.3182992,5.94701549 17.6291667,5.96830557 17.8299405,6.16699564 C18.0558109,6.39052197 18.0568114,6.75392528 17.8321751,6.97867965 L17.8321751,6.97867965 L12.813,12 L17.8321751,17.0213203 C18.0568114,17.2460747 18.0558109,17.609478 17.8299405,17.8330044 C17.6291667,18.0316944 17.3182992,18.0529845 17.093927,17.8974105 L17.0142258,17.8307808 L12,12.813 L6.98577421,17.8307808 L6.90607305,17.8974105 C6.6817008,18.0529845 6.37083327,18.0316944 6.17005953,17.8330044 C5.94418907,17.609478 5.94318859,17.2460747 6.16782491,17.0213203 L6.16782491,17.0213203 L11.186,12 L6.16782491,6.97867965 C5.94318859,6.75392528 5.94418907,6.39052197 6.17005953,6.16699564 C6.37083327,5.96830557 6.6817008,5.94701549 6.90607305,6.1025895 L6.98577421,6.16921922 L12,11.186 L17.0142258,6.16921922 Z" />
        </symbol>
        <symbol id="icon-select-arrow" viewBox="0 0 16 16">
            <path
                d="M11.798 4.859a.667.667 0 0 1-.943.942L7.997 2.942l-2.859 2.86a.667.667 0 0 1-.88.055L4.195 5.8a.667.667 0 0 1 0-.942l3.33-3.33c.26-.26.683-.26.943 0l3.33 3.33zm-7.603 6.28a.667.667 0 0 1 .943-.944l2.858 2.86 2.86-2.86a.667.667 0 0 1 .88-.055l.062.055c.26.26.26.683 0 .943l-3.33 3.33a.667.667 0 0 1-.943 0l-3.33-3.33z"
                fill="#000" fill-rule="nonzero" opacity=".5" />
        </symbol>
        <symbol id="icon-login" viewBox="0 0 18 18">
            <title>Login</title>
            <path
                d="M9 18V16H16V2H9V0H16C16.55 0 17.021 0.196 17.413 0.588C17.805 0.98 18.0007 1.45067 18 2V16C18 16.55 17.8043 17.021 17.413 17.413C17.0217 17.805 16.5507 18.0007 16 18H9ZM7 14L5.625 12.55L8.175 10H0V8H8.175L5.625 5.45L7 4L12 9L7 14Z"
                fill="currentColor" />
        </symbol>
        <symbol id="icon-search" viewBox="0 0 24 24">
            <title>Search</title>
            <path xmlns="http://www.w3.org/2000/svg" fill-rule="evenodd" clip-rule="evenodd"
                d="M10.5 2C9.1446 2.00012 7.80887 2.32436 6.60427 2.94569C5.39966 3.56702 4.3611 4.46742 3.57525 5.57175C2.78939 6.67609 2.27902 7.95235 2.08672 9.29404C1.89442 10.6357 2.02576 12.004 2.46979 13.2846C2.91382 14.5652 3.65766 15.7211 4.63925 16.6557C5.62084 17.5904 6.81171 18.2768 8.11252 18.6576C9.41333 19.0384 10.7864 19.1026 12.117 18.8449C13.4477 18.5872 14.6975 18.015 15.762 17.176L19.414 20.828C19.6026 21.0102 19.8552 21.111 20.1174 21.1087C20.3796 21.1064 20.6304 21.0012 20.8158 20.8158C21.0012 20.6304 21.1064 20.3796 21.1087 20.1174C21.111 19.8552 21.0102 19.6026 20.828 19.414L17.176 15.762C18.164 14.5086 18.7792 13.0024 18.9511 11.4157C19.123 9.82905 18.8448 8.22602 18.1482 6.79009C17.4517 5.35417 16.3649 4.14336 15.0123 3.29623C13.6597 2.44911 12.096 1.99989 10.5 2ZM4.00001 10.5C4.00001 8.77609 4.68483 7.12279 5.90382 5.90381C7.1228 4.68482 8.7761 4 10.5 4C12.2239 4 13.8772 4.68482 15.0962 5.90381C16.3152 7.12279 17 8.77609 17 10.5C17 12.2239 16.3152 13.8772 15.0962 15.0962C13.8772 16.3152 12.2239 17 10.5 17C8.7761 17 7.1228 16.3152 5.90382 15.0962C4.68483 13.8772 4.00001 12.2239 4.00001 10.5Z"
                fill="currentColor" />
        </symbol>
        <symbol id="icon-arrow-right" viewBox="0 0 30 20">
            <title>Arrow Right</title>
            <path xmlns="http://www.w3.org/2000/svg"
                d="M28.3333 9.86907L29.1357 10.6715L29.9358 9.86907L29.1357 9.06667L28.3333 9.86907ZM27.5309 9.06667L18.4642 18.1333L20.069 19.7381L29.1357 10.6715L27.5309 9.06667ZM29.1357 9.06667L20.069 -4.31291e-07L18.4642 1.6048L27.5309 10.6715L29.1357 9.06667ZM28.3333 8.73573L-7.47684e-05 8.73573L-7.48675e-05 11.0024L28.3333 11.0024L28.3333 8.73573Z"
                fill="currentColor" />
        </symbol>
        <symbol id="icon-caret" viewBox="0 0 24 24">
            <title>Arrow Caret</title>
            <path fill="none" stroke="currentColor" stroke-width="2" stroke-linecap="round" stroke-linejoin="round"
                d="m9 18 6-6-6-6" />
        </symbol>

        <symbol id="icon-filter" viewBox="0 0 38 22">
            <title>Filter Icon</title>
            <path
                d="M0 0H38V3.88235H0V0ZM6.33333 9.05882H31.6667V12.9412H6.33333V9.05882ZM13.9333 18.1176H24.0667V22H13.9333V18.1176Z"
                fill="currentColor" />
        </symbol>
        <symbol id="icon-calendar" viewBox="0 0 16 16">
            <title>Calendar Icon</title>
            <path
                d="M14.5 16H1.5C0.67 16 0 15.33 0 14.5V2.5C0 1.67 0.67 1 1.5 1H14.5C15.33 1 16 1.67 16 2.5V14.5C16 15.33 15.33 16 14.5 16ZM1.5 2C1.22 2 1 2.22 1 2.5V14.5C1 14.78 1.22 15 1.5 15H14.5C14.78 15 15 14.78 15 14.5V2.5C15 2.22 14.78 2 14.5 2H1.5Z"
                fill="black" />
            <path
                d="M4.5 4C4.22 4 4 3.78 4 3.5V0.5C4 0.22 4.22 0 4.5 0C4.78 0 5 0.22 5 0.5V3.5C5 3.78 4.78 4 4.5 4ZM11.5 4C11.22 4 11 3.78 11 3.5V0.5C11 0.22 11.22 0 11.5 0C11.78 0 12 0.22 12 0.5V3.5C12 3.78 11.78 4 11.5 4ZM15.5 6H0.5C0.22 6 0 5.78 0 5.5C0 5.22 0.22 5 0.5 5H15.5C15.78 5 16 5.22 16 5.5C16 5.78 15.78 6 15.5 6Z"
                fill="black" />
        </symbol>
        <symbol id="icon-time" viewBox="0 0 18 18">
            <title>Time Icon</title>
            <path
                d="M9 18C7.21997 18 5.47991 17.4722 3.99987 16.4832C2.51983 15.4943 1.36628 14.0887 0.685088 12.4442C0.00389955 10.7996 -0.17433 8.99002 0.172936 7.24419C0.520203 5.49836 1.37737 3.89471 2.63604 2.63604C3.89471 1.37737 5.49836 0.520203 7.24419 0.172936C8.99002 -0.17433 10.7996 0.00389955 12.4442 0.685088C14.0887 1.36628 15.4943 2.51983 16.4832 3.99987C17.4722 5.47991 18 7.21997 18 9C18 11.387 17.0518 13.6761 15.364 15.364C13.6761 17.0518 11.387 18 9 18ZM9 1.28572C7.47426 1.28572 5.98278 1.73815 4.71418 2.58581C3.44557 3.43347 2.45681 4.63827 1.87293 6.04787C1.28906 7.45747 1.13629 9.00856 1.43395 10.505C1.7316 12.0014 2.46632 13.376 3.54518 14.4548C4.62404 15.5337 5.9986 16.2684 7.49502 16.5661C8.99145 16.8637 10.5425 16.7109 11.9521 16.1271C13.3617 15.5432 14.5665 14.5544 15.4142 13.2858C16.2619 12.0172 16.7143 10.5257 16.7143 9C16.7143 6.95405 15.9015 4.99189 14.4548 3.54518C13.0081 2.09847 11.046 1.28572 9 1.28572Z"
                fill="black" />
            <path d="M11.9507 12.8567L8.35718 9.26315V3.21387H9.64289V8.72958L12.8572 11.9503L11.9507 12.8567Z"
                fill="black" />
        </symbol>
        <symbol id="icon-world" viewBox="0 0 18 18">
            <title>World Icon</title>
            <path
                d="M9.003 18C7.759 18 6.589 17.764 5.493 17.292C4.39767 16.8193 3.44467 16.178 2.634 15.368C1.82333 14.558 1.18167 13.606 0.709 12.512C0.236333 11.418 0 10.2483 0 9.003C0 7.75767 0.236333 6.58767 0.709 5.493C1.181 4.39767 1.82133 3.44467 2.63 2.634C3.43867 1.82333 4.391 1.18167 5.487 0.709C6.583 0.236333 7.753 0 8.997 0C10.241 0 11.411 0.236333 12.507 0.709C13.6023 1.181 14.5553 1.82167 15.366 2.631C16.1767 3.44033 16.8183 4.39267 17.291 5.488C17.7637 6.58333 18 7.753 18 8.997C18 10.241 17.764 11.411 17.292 12.507C16.82 13.603 16.1787 14.556 15.368 15.366C14.5573 16.176 13.6053 16.8177 12.512 17.291C11.4187 17.7643 10.249 18.0007 9.003 18ZM9 17C11.2333 17 13.125 16.225 14.675 14.675C16.225 13.125 17 11.2333 17 9C17 8.88333 16.999 8.76567 16.997 8.647C16.995 8.52833 16.9877 8.41467 16.975 8.306C16.9303 8.75067 16.7537 9.11867 16.445 9.41C16.1357 9.70067 15.7567 9.846 15.308 9.846H12.769C12.3037 9.846 11.9053 9.68067 11.574 9.35C11.2427 9.01933 11.077 8.62167 11.077 8.157V7.312H7.692V5.622C7.692 5.15733 7.858 4.758 8.19 4.424C8.52133 4.09 8.91967 3.923 9.385 3.923H10.231V3.153C10.231 2.66767 10.3897 2.28567 10.707 2.007C11.0243 1.72833 11.4033 1.56767 11.844 1.525C11.3953 1.35167 10.9353 1.221 10.464 1.133C9.99267 1.045 9.50467 1.00067 9 1C6.76667 1 4.875 1.775 3.325 3.325C1.775 4.875 1 6.76667 1 9V9.289C1 9.37833 1.00667 9.47433 1.02 9.577H5.5C6.44667 9.577 7.24733 9.90467 7.902 10.56C8.55733 11.2147 8.885 12.0123 8.885 12.953V13.808H6.346V16.538C6.75667 16.686 7.18533 16.8 7.632 16.88C8.07867 16.96 8.53467 17 9 17Z"
                fill="black" />
        </symbol>
        <symbol id="icon-camera" viewBox="0 0 18 12">
            <title>Camera Icon</title>
            <path
                d="M12.2143 12H1.28571C0.944722 12 0.617695 11.8736 0.376577 11.6485C0.135459 11.4235 0 11.1183 0 10.8V1.2C0 0.88174 0.135459 0.576515 0.376577 0.351472C0.617695 0.126428 0.944722 0 1.28571 0H12.2143C12.5553 0 12.8823 0.126428 13.1234 0.351472C13.3645 0.576515 13.5 0.88174 13.5 1.2V3.636L16.9843 1.314C17.0802 1.25024 17.1931 1.21231 17.3106 1.20434C17.4281 1.19638 17.5456 1.21869 17.6504 1.26884C17.7552 1.31899 17.8433 1.39505 17.9049 1.48872C17.9666 1.58239 17.9995 1.69007 18 1.8V10.2C17.9995 10.3099 17.9666 10.4176 17.9049 10.5113C17.8433 10.6049 17.7552 10.681 17.6504 10.7312C17.5456 10.7813 17.4281 10.8036 17.3106 10.7957C17.1931 10.7877 17.0802 10.7498 16.9843 10.686L13.5 8.364V10.8C13.5 11.1183 13.3645 11.4235 13.1234 11.6485C12.8823 11.8736 12.5553 12 12.2143 12ZM1.28571 1.2V10.8H12.2143V7.2C12.2148 7.09007 12.2477 6.98239 12.3094 6.88872C12.371 6.79505 12.4591 6.71899 12.5639 6.66884C12.6687 6.61869 12.7862 6.59638 12.9037 6.60434C13.0212 6.61231 13.1341 6.65024 13.23 6.714L16.7143 9.036V2.964L13.23 5.286C13.1341 5.34976 13.0212 5.38769 12.9037 5.39566C12.7862 5.40362 12.6687 5.38131 12.5639 5.33116C12.4591 5.28101 12.371 5.20495 12.3094 5.11128C12.2477 5.01761 12.2148 4.90993 12.2143 4.8V1.2H1.28571Z"
                fill="black" />
        </symbol>
    </defs>
</svg>