<svg width="24" height="24" viewBox="0 0 24 24" fill="none" xmlns="http://www.w3.org/2000/svg">
<g clip-path="url(#clip0_2439_1141)">
<path d="M21.75 15.75H5.98687C6.23625 15.2587 6.48656 14.7534 6.73687 14.2397C8.13656 14.3944 9.795 13.4147 11.6812 11.3128C11.7375 11.4684 11.8003 11.6287 11.8687 11.7909C12.4791 13.2206 13.2666 14.0353 14.2125 14.2144C15.1819 14.4019 16.1419 13.9116 17.1262 12.7313C17.7656 13.4878 19.0781 14.25 21.75 14.25C21.9489 14.25 22.1397 14.171 22.2803 14.0303C22.421 13.8897 22.5 13.6989 22.5 13.5C22.5 13.3011 22.421 13.1103 22.2803 12.9697C22.1397 12.829 21.9489 12.75 21.75 12.75C18.8784 12.75 18.0422 11.7572 18 11.2294C17.9954 11.0549 17.9302 10.8875 17.8154 10.756C17.7007 10.6245 17.5437 10.5371 17.3715 10.5089C17.1992 10.4807 17.0225 10.5134 16.8719 10.6014C16.7212 10.6895 16.6059 10.8274 16.5459 10.9913C15.405 12.7022 14.7291 12.7856 14.4834 12.7406C13.7025 12.5934 12.9759 10.7784 12.7312 9.59906C12.6992 9.45011 12.6226 9.31445 12.5116 9.21012C12.4006 9.1058 12.2604 9.03775 12.1097 9.01506C11.9591 8.99236 11.8051 9.01607 11.6683 9.08305C11.5314 9.15003 11.4182 9.2571 11.3437 9.39C9.4875 11.6981 8.2425 12.4838 7.46156 12.6844C8.2575 10.9144 8.85187 9.36094 9.2325 8.05313C9.87187 5.85563 9.91875 4.31906 9.37406 3.35625C9.09281 2.85375 8.50312 2.25469 7.32 2.25H7.29656C5.79656 2.26031 4.61531 3.68437 4.05093 6.15937C3.71437 7.63219 3.65906 9.27094 3.89812 10.6594C4.13718 12.0478 4.635 13.0509 5.35593 13.6491C5.00718 14.3737 4.65 15.0816 4.30312 15.7519H2.25C2.05108 15.7519 1.86032 15.8309 1.71967 15.9715C1.57901 16.1122 1.5 16.303 1.5 16.5019C1.5 16.7008 1.57901 16.8916 1.71967 17.0322C1.86032 17.1729 2.05108 17.2519 2.25 17.2519H3.50718C2.44593 19.2206 1.62093 20.5931 1.60781 20.6156C1.55434 20.7001 1.51829 20.7944 1.50178 20.893C1.48528 20.9915 1.48864 21.0924 1.51168 21.1897C1.53473 21.287 1.57698 21.3786 1.63596 21.4594C1.69494 21.5401 1.76946 21.6082 1.85513 21.6596C1.94081 21.7111 2.03591 21.745 2.13485 21.7592C2.2338 21.7734 2.33458 21.7677 2.43129 21.7424C2.52799 21.7171 2.61866 21.6727 2.69797 21.6119C2.77729 21.5511 2.84363 21.475 2.89312 21.3881C2.90718 21.3638 3.94968 19.6266 5.20875 17.2519H21.75C21.9489 17.2519 22.1397 17.1729 22.2803 17.0322C22.421 16.8916 22.5 16.7008 22.5 16.5019C22.5 16.303 22.421 16.1122 22.2803 15.9715C22.1397 15.8309 21.9489 15.7519 21.75 15.7519V15.75ZM18 11.25V11.2303C18.0006 11.2369 18.0006 11.2435 18 11.25ZM5.51156 6.49312C5.88562 4.85438 6.6075 3.75 7.3125 3.75C7.80468 3.75 7.96875 3.92437 8.0625 4.09406C8.34375 4.59375 8.67375 6.36187 6.03281 12.1912C5.265 11.1328 5.00343 8.71875 5.51156 6.49312Z" fill="#4338CA"/>
</g>
<defs>
<clipPath id="clip0_2439_1141">
<rect width="24" height="24" fill="white"/>
</clipPath>
</defs>
</svg>
