<svg width="48" height="48" viewBox="0 0 48 48" fill="none" xmlns="http://www.w3.org/2000/svg">
<path opacity="0.2" d="M37.5 28.5L30 36L18 33L7.5 25.5L13.5 13.5L24 10.5L34.5 13.5H27L18.4387 21.8044C18.2796 21.9634 18.1583 22.1563 18.0838 22.3686C18.0093 22.5809 17.9835 22.8073 18.0083 23.031C18.0332 23.2546 18.108 23.4698 18.2273 23.6606C18.3466 23.8514 18.5073 24.0129 18.6975 24.1331C21.9806 26.2313 26.4375 26.0869 30 22.5L37.5 28.5Z" fill="#2563EB"/>
<path d="M22.4541 40.8637C22.3729 41.1882 22.1857 41.4763 21.9221 41.6822C21.6584 41.8881 21.3335 41.9999 20.9991 42C20.8727 42.0006 20.7467 41.9854 20.6241 41.955L14.624 40.455C14.457 40.413 14.2984 40.3426 14.1553 40.2468L9.6553 37.2468C9.32436 37.026 9.09468 36.6828 9.0168 36.2927C8.93891 35.9026 9.01919 35.4975 9.23999 35.1665C9.46078 34.8356 9.804 34.6059 10.1941 34.528C10.5843 34.4501 10.9894 34.5304 11.3203 34.7512L15.6028 37.6068L21.3515 39.045C21.5436 39.0915 21.7246 39.1756 21.8841 39.2923C22.0436 39.4091 22.1784 39.5562 22.2809 39.7252C22.3833 39.8942 22.4514 40.0818 22.4811 40.2772C22.5108 40.4725 22.5016 40.6719 22.4541 40.8637ZM47.3334 22.7775C47.2103 23.1513 47.0144 23.497 46.757 23.7947C46.4995 24.0924 46.1856 24.3361 45.8334 24.5118L41.3934 26.7318L31.0659 37.0612C30.8826 37.2443 30.655 37.3768 30.4053 37.4458C30.1556 37.5148 29.8922 37.518 29.6409 37.455L17.6409 34.455C17.4584 34.4091 17.2861 34.3297 17.1328 34.2206L6.7228 26.7881L2.1703 24.5118C1.4588 24.1562 0.917689 23.5325 0.665937 22.7779C0.414184 22.0234 0.472406 21.1997 0.827799 20.4881L5.48717 11.1712C5.84285 10.4597 6.46653 9.9186 7.22109 9.66685C7.97564 9.4151 8.79929 9.47332 9.51092 9.82871L13.6472 11.8912L23.5847 9.05246C23.8543 8.97535 24.1401 8.97535 24.4097 9.05246L34.3472 11.8912L38.4834 9.82871C39.1951 9.47332 40.0187 9.4151 40.7733 9.66685C41.5278 9.9186 42.1515 10.4597 42.5072 11.1712L47.1665 20.4881C47.3443 20.8397 47.4505 21.2231 47.4792 21.6161C47.5078 22.009 47.4583 22.4038 47.3334 22.7775ZM38.6747 25.2037L33.5728 15H27.6066L19.4991 22.875C21.8728 24.3918 25.5947 24.81 28.9341 21.4443C29.1949 21.1815 29.5437 21.0243 29.9134 21.0032C30.2831 20.9821 30.6475 21.0985 30.9366 21.33L37.3884 26.4993L38.6747 25.2037ZM3.51092 21.8287L6.8278 23.4881L11.4872 14.1712L8.1703 12.5118L3.51092 21.8287ZM35.2491 28.6237L30.0534 24.4631C26.3897 27.4631 21.7378 27.8587 17.8828 25.4006C17.5036 25.1594 17.1834 24.836 16.946 24.4545C16.7085 24.0729 16.5598 23.6429 16.5108 23.1961C16.4619 22.7494 16.5139 22.2973 16.6631 21.8734C16.8123 21.4495 17.0548 21.0645 17.3728 20.7468C17.3773 20.7414 17.3823 20.7364 17.3878 20.7318L25.799 12.5737L23.9991 12.06L14.5453 14.7618L9.41342 25.0237L18.6384 31.6143L29.5397 34.3387L35.2491 28.6237ZM44.4816 21.8287L39.8278 12.5118L36.5109 14.1712L41.1703 23.4881L44.4816 21.8287Z" fill="#1E4FD6"/>
</svg>
